<svg id="Layer_1" data-name="Layer 1" xmlns="http://www.w3.org/2000/svg" viewBox="0 0 495.58 44.38"><defs><style>.cls-1{fill:#fff;stroke:#f58533;}</style></defs><title>sophiahuang</title><path class="cls-1" d="M90,355.43a3.62,3.62,0,0,0-1.35,2.94,3.32,3.32,0,0,0,1.65,2.91q1.65,1.08,7.62,2.55a21.47,21.47,0,0,1,9.27,4.41q3.3,2.94,3.3,8.58a11.33,11.33,0,0,1-4.23,9.15q-4.23,3.51-11.13,3.51-10,0-17.94-7.38l5.58-6.84q6.78,5.94,12.54,5.94a6.58,6.58,0,0,0,4.05-1.11,3.56,3.56,0,0,0,1.47-3,3.5,3.5,0,0,0-1.56-3,20.38,20.38,0,0,0-6.18-2.25q-7.32-1.74-10.71-4.53T79,358.55a10.86,10.86,0,0,1,4.29-9.21A17.26,17.26,0,0,1,94,346.1a25.76,25.76,0,0,1,8.4,1.44,22.51,22.51,0,0,1,7.32,4.08l-4.74,6.84a18.47,18.47,0,0,0-11.28-4.14A5.64,5.64,0,0,0,90,355.43Z" transform="translate(-76.48 -345.6)"/><path class="cls-1" d="M155.3,383.21a22.85,22.85,0,0,1-31.32,0,21.94,21.94,0,0,1,0-30.9,22.85,22.85,0,0,1,31.32,0A21.95,21.95,0,0,1,155.3,383.21Zm-3.18-15.42a13.73,13.73,0,0,0-3.6-9.57,11.87,11.87,0,0,0-17.7,0,14.48,14.48,0,0,0,0,19.11,11.93,11.93,0,0,0,17.7,0A13.62,13.62,0,0,0,152.12,367.79Z" transform="translate(-76.48 -345.6)"/><path class="cls-1" d="M200.06,350.81q4.41,3.75,4.41,11.52t-4.53,11.37q-4.53,3.6-13.83,3.6h-5.58V389h-9.36V347.06H186Q195.65,347.06,200.06,350.81Zm-6.87,16.5a8.06,8.06,0,0,0,1.68-5.52q0-3.63-2.19-5.16t-6.81-1.53h-5.34v14.1h6.3Q191.51,369.2,193.19,367.31Z" transform="translate(-76.48 -345.6)"/><path class="cls-1" d="M239.41,347.06h9.36V389h-9.36V372.5H222.73V389h-9.36V347.06h9.36v17.52h16.68V347.06Z" transform="translate(-76.48 -345.6)"/><path class="cls-1" d="M260.67,347.06H270V389h-9.36V347.06Z" transform="translate(-76.48 -345.6)"/><path class="cls-1" d="M311.82,389l-3.9-9.06H290.34l-3.9,9.06h-10l18.12-41.94h9.06L321.78,389h-10Zm-12.66-29.46-5.28,12.18h10.5Z" transform="translate(-76.48 -345.6)"/><path class="cls-1" d="M370.1,347.06h9.36V389H370.1V372.5H353.42V389h-9.36V347.06h9.36v17.52H370.1V347.06Z" transform="translate(-76.48 -345.6)"/><path class="cls-1" d="M402.46,378.17a7.66,7.66,0,0,0,6.3,2.91,7.58,7.58,0,0,0,6.27-2.91q2.31-2.91,2.31-7.95V347.06h9.36v23.46q0,9.12-5,14a19.46,19.46,0,0,1-25.83,0q-5.07-4.92-5.07-14V347.06h9.36v23.16Q400.12,375.26,402.46,378.17Z" transform="translate(-76.48 -345.6)"/><path class="cls-1" d="M467.89,389l-3.9-9.06H446.41l-3.9,9.06h-10l18.12-41.94h9.06L477.85,389h-10Zm-12.66-29.46-5.28,12.18h10.5Z" transform="translate(-76.48 -345.6)"/><path class="cls-1" d="M513.63,347.06H523V389h-9.36l-20-26.28V389h-9.36V347.06H493l20.58,27v-27Z" transform="translate(-76.48 -345.6)"/><path class="cls-1" d="M562.13,367.64h9.42v14.88q-6.24,7-17.28,7a21.33,21.33,0,0,1-15.51-6.12,22.17,22.17,0,0,1,.12-31,21.27,21.27,0,0,1,15.42-6.24A22.81,22.81,0,0,1,570,352l-4.86,7a18.56,18.56,0,0,0-5.19-3.39,13.94,13.94,0,0,0-5.13-.93,12.28,12.28,0,0,0-9,3.63,14.49,14.49,0,0,0-.15,19.08A11.33,11.33,0,0,0,554,381a16.07,16.07,0,0,0,8.1-1.86V367.64Z" transform="translate(-76.48 -345.6)"/></svg>